<svg width="187" height="36" viewBox="0 0 187 36" fill="none" xmlns="http://www.w3.org/2000/svg">
<path d="M12.9 21.25L8.2 26.15V35H0.15V-2.38419e-06H8.2V16.35L23.7 -2.38419e-06H32.7L18.2 15.6L33.55 35H24.1L12.9 21.25Z" fill="url(#paint0_linear_103_149)"/>
<path d="M51.4237 35.552C48.0811 35.552 45.0604 34.8313 42.3617 33.39C39.6937 31.9487 37.5931 29.9707 36.0597 27.456C34.5571 24.9107 33.8057 22.0587 33.8057 18.9C33.8057 15.7413 34.5571 12.9047 36.0597 10.39C37.5931 7.84467 39.6937 5.85133 42.3617 4.41C45.0604 2.96867 48.0811 2.248 51.4237 2.248C54.7664 2.248 57.7717 2.96867 60.4397 4.41C63.1077 5.85133 65.2084 7.84467 66.7417 10.39C68.2751 12.9047 69.0417 15.7413 69.0417 18.9C69.0417 22.0587 68.2751 24.9107 66.7417 27.456C65.2084 29.9707 63.1077 31.9487 60.4397 33.39C57.7717 34.8313 54.7664 35.552 51.4237 35.552ZM51.4237 29.204C53.3251 29.204 55.0424 28.7747 56.5757 27.916C58.1091 27.0267 59.3051 25.8 60.1637 24.236C61.0531 22.672 61.4977 20.8933 61.4977 18.9C61.4977 16.9067 61.0531 15.128 60.1637 13.564C59.3051 12 58.1091 10.7887 56.5757 9.93C55.0424 9.04067 53.3251 8.596 51.4237 8.596C49.5224 8.596 47.8051 9.04067 46.2717 9.93C44.7384 10.7887 43.5271 12 42.6377 13.564C41.7791 15.128 41.3497 16.9067 41.3497 18.9C41.3497 20.8933 41.7791 22.672 42.6377 24.236C43.5271 25.8 44.7384 27.0267 46.2717 27.916C47.8051 28.7747 49.5224 29.204 51.4237 29.204ZM103.024 35L102.978 15.68L93.5022 31.596H90.1442L80.7142 16.094V35H73.7222V2.8H79.8862L91.9382 22.81L103.806 2.8H109.924L110.016 35H103.024ZM137.942 28.1H122.992L120.14 35H112.504L126.856 2.8H134.216L148.614 35H140.794L137.942 28.1ZM135.596 22.442L130.49 10.114L125.384 22.442H135.596ZM161.615 35.552C159.069 35.552 156.601 35.2147 154.209 34.54C151.847 33.8347 149.946 32.93 148.505 31.826L151.035 26.214C152.415 27.226 154.055 28.0387 155.957 28.652C157.858 29.2653 159.759 29.572 161.661 29.572C163.777 29.572 165.341 29.2653 166.353 28.652C167.365 28.008 167.871 27.1647 167.871 26.122C167.871 25.3553 167.564 24.7267 166.951 24.236C166.368 23.7147 165.601 23.3007 164.651 22.994C163.731 22.6873 162.473 22.35 160.879 21.982C158.425 21.3993 156.417 20.8167 154.853 20.234C153.289 19.6513 151.939 18.716 150.805 17.428C149.701 16.14 149.149 14.4227 149.149 12.276C149.149 10.4053 149.655 8.71867 150.667 7.216C151.679 5.68266 153.197 4.47133 155.221 3.582C157.275 2.69267 159.775 2.248 162.719 2.248C164.773 2.248 166.782 2.49333 168.745 2.984C170.707 3.47467 172.425 4.18 173.897 5.1L171.597 10.758C168.622 9.07133 165.647 8.228 162.673 8.228C160.587 8.228 159.039 8.56533 158.027 9.24C157.045 9.91467 156.555 10.804 156.555 11.908C156.555 13.012 157.122 13.84 158.257 14.392C159.422 14.9133 161.185 15.4347 163.547 15.956C166 16.5387 168.009 17.1213 169.573 17.704C171.137 18.2867 172.471 19.2067 173.575 20.464C174.709 21.7213 175.277 23.4233 175.277 25.57C175.277 27.41 174.755 29.0967 173.713 30.63C172.701 32.1327 171.167 33.3287 169.113 34.218C167.058 35.1073 164.559 35.552 161.615 35.552ZM179.449 2.8H186.901V35H179.449V2.8Z" fill="white"/>
<defs>
<linearGradient id="paint0_linear_103_149" x1="93.5" y1="-13" x2="93.5" y2="48" gradientUnits="userSpaceOnUse">
<stop offset="0.25" stop-color="#1C69FF"/>
<stop offset="1" stop-color="#1BF499" stop-opacity="0.89"/>
</linearGradient>
</defs>
</svg>
